<?xml version="1.0" encoding="UTF-8" standalone="no"?>
<!-- Created with Inkscape (http://www.inkscape.org/) -->

<svg
   width="256mm"
   height="71mm"
   viewBox="0 0 256 71"
   version="1.1"
   id="svg1"
   xml:space="preserve"
   inkscape:version="1.4 (e7c3feb100, 2024-10-09)"
   sodipodi:docname="atlas_name_logo.svg"
   xmlns:inkscape="http://www.inkscape.org/namespaces/inkscape"
   xmlns:sodipodi="http://sodipodi.sourceforge.net/DTD/sodipodi-0.dtd"
   xmlns="http://www.w3.org/2000/svg"
   xmlns:svg="http://www.w3.org/2000/svg"><sodipodi:namedview
     id="namedview1"
     pagecolor="#ffffff"
     bordercolor="#000000"
     borderopacity="0.25"
     inkscape:showpageshadow="2"
     inkscape:pageopacity="0.0"
     inkscape:pagecheckerboard="0"
     inkscape:deskcolor="#d1d1d1"
     inkscape:document-units="mm"
     inkscape:zoom="1.6739127"
     inkscape:cx="606.06505"
     inkscape:cy="383.83124"
     inkscape:window-width="3840"
     inkscape:window-height="2082"
     inkscape:window-x="1920"
     inkscape:window-y="50"
     inkscape:window-maximized="1"
     inkscape:current-layer="layer1" /><defs
     id="defs1" /><g
     inkscape:label="Layer 1"
     inkscape:groupmode="layer"
     id="layer1"><path
       style="fill:#000000"
       d="m 13.306431,60.444265 c 0,-0.0523 1.040496,-2.63202 2.312214,-5.73264 1.271719,-3.10062 3.1033,-7.67198 4.070181,-10.15857 0.966881,-2.48659 2.459653,-6.13784 3.317272,-8.11389 1.424861,-3.28303 7.663744,-19.13991 9.186409,-23.34837 0.351007,-0.97013 0.789046,-1.96232 0.973421,-2.20486 0.243924,-0.32087 1.893402,-0.44097 6.056238,-0.44097 h 5.721011 l 0.443144,0.97014 c 0.24373,0.53358 1.054836,2.55764 1.802459,4.49792 1.263115,3.27811 2.573144,6.45263 5.968816,14.46389 0.74017,1.74625 2.696585,6.42937 4.34759,10.40694 1.651004,3.97757 4.129195,9.88764 5.50709,13.1335 1.377895,3.24585 2.505263,6.06366 2.505263,6.2618 0,0.23186 -2.27186,0.36026 -6.374523,0.36026 h -6.374523 l -1.891474,-3.97925 -1.891475,-3.97925 -9.461085,0.0899 -9.461085,0.0899 -1.763888,3.88806 -1.763889,3.88806 -6.614583,10e-4 c -3.638021,6.8e-4 -6.614583,-0.0416 -6.614583,-0.0939 z m 31.044443,-18.71094 c 0,-0.25391 -0.490239,-1.80172 -1.089419,-3.43959 -0.59918,-1.63786 -1.490356,-4.24794 -1.980391,-5.80016 -0.490036,-1.55222 -1.137387,-3.29847 -1.438558,-3.88055 l -0.547585,-1.05834 -0.459157,1.05834 c -0.486558,1.12149 -4.362668,12.99587 -4.362668,13.36494 0,0.11935 2.2225,0.217 4.938889,0.217 3.833875,0 4.938889,-0.10329 4.938889,-0.46164 z m 33.227537,-0.59684 0.109961,-19.40292 -7.496527,1.4e-4 -7.496528,1.5e-4 v -5.46806 -5.46805 h 21.343055 c 11.73868,0 21.440988,0.0397 21.560678,0.0882 0.26818,0.10868 0.20094,7.29123 -0.0875,9.34861 l -0.21022,1.49931 h -7.718232 -7.718235 l 0.231308,19.40277 0.231308,19.40278 h -6.429506 -6.429505 z m 32.789589,-5.46754 0.1287,-24.87046 6.08542,-3.7e-4 6.08542,-3.7e-4 6.6e-4,8.73125 c 3.5e-4,4.80219 0.10432,13.335 0.23104,18.9618 l 0.23039,10.23056 10.52868,-0.0983 10.52867,-0.0983 v 6.00734 6.00735 h -16.97383 -16.97386 z m 37.0395,20.90957 c 0.77219,-2.18713 1.85685,-5.2466 2.41034,-6.79883 0.55351,-1.55222 3.33724,-8.61659 6.18606,-15.69861 2.84883,-7.08201 5.98211,-15.09889 6.96285,-17.81528 0.98074,-2.71638 1.90518,-5.09763 2.05431,-5.29166 0.16794,-0.21853 2.59867,-0.31298 6.38728,-0.24819 l 6.11615,0.10459 2.42831,6.24541 c 3.41202,8.77543 7.51882,18.82868 10.18917,24.94263 0.7627,1.74625 2.3052,5.3975 3.42778,8.11389 1.12258,2.71639 2.53569,6.00697 3.14025,7.31239 0.60456,1.30543 1.09921,2.53917 1.09921,2.74165 0,0.24613 -2.22461,0.33639 -6.71212,0.27233 l -6.71213,-0.0958 -1.68254,-3.88056 -1.68255,-3.88055 -9.33241,0.12256 c -5.13283,0.0674 -9.42524,0.22615 -9.53869,0.35277 -0.11345,0.12662 -0.47507,0.9446 -0.8036,1.81772 -0.32853,0.87313 -1.02946,2.46063 -1.55762,3.52778 l -0.96029,1.94028 -6.41187,0.096 -6.41187,0.096 z m 29.23503,-14.34815 c 0,-0.29909 -0.7471,-2.33306 -3.77081,-10.26595 -0.70259,-1.84327 -1.40599,-3.49663 -1.56313,-3.67414 -0.15803,-0.17852 -0.60943,0.43247 -1.01013,1.36727 -0.65819,1.53549 -3.13325,9.56005 -3.67657,11.92006 l -0.22336,0.97014 h 5.12201 c 2.8171,0 5.122,-0.14282 5.12199,-0.31738 z m 23.51852,18.07386 c -0.12934,-0.12935 -0.23518,-2.64777 -0.23518,-5.59649 v -5.36131 l 1.63674,-0.22434 c 0.9002,-0.12339 7.09146,-0.22434 13.75833,-0.22434 h 12.1216 v -3.70417 -3.70416 H 216.9024 c -9.11198,0 -10.99619,-0.5495 -10.99619,-0.5495 0,0 -2.30073,-0.124955 -3.18934,-0.630585 -2.46191,-1.4009 -3.26013,-3.460842 -3.45274,-5.611302 -0.16843,-1.880524 -0.45363,-2.552723 -0.41679,-8.879783 0.0352,-6.05559 0.13276,-7.23574 0.70467,-8.52864 0.92102,-2.08211 3.35912,-4.61904 5.47497,-5.69688 2.0721,-1.05557 0.70009,-0.9958 20.21988,-0.88078 l 14.56127,0.0858 -0.0974,5.37986 -0.0974,5.37986 -13.93472,0.0921 -13.93472,0.0921 0.0739,3.25933 c 0.0406,1.79264 0.0803,3.60994 0.0882,4.03845 l 0.0143,0.77911 10.70826,0.10284 c 0,0 7.01813,-0.07775 10.70829,0.10283 0.90423,0.04425 2.63638,0.641985 2.63638,0.641985 4.32954,2.209863 4.34701,5.153457 4.34567,5.301855 -0.025,2.777484 0,8.84613 0,8.84613 v 8.84614 l -0.96646,1.64405 c -1.06642,1.81408 -4.3599,4.26099 -6.55627,4.87102 -1.43805,0.39941 -32.24296,0.52109 -32.63514,0.12891 z"
       id="path2"
       sodipodi:nodetypes="csssssscsssssssccccccccccsssscssssccccccsssccccccccccccssccccccccsssssscsssssscccsssscccsssssscsscscsscccscsscssscccccccccsssccsscc" /></g></svg>
